<?xml version="1.0" encoding="utf-8"?>
<!-- Generator: Adobe Illustrator 24.3.0, SVG Export Plug-In . SVG Version: 6.00 Build 0)  -->
<svg version="1.1" id="Calque_1" xmlns="http://www.w3.org/2000/svg" xmlns:xlink="http://www.w3.org/1999/xlink" x="0px" y="0px"
	 viewBox="0 0 75 75" style="enable-background:new 0 0 75 75;" xml:space="preserve">
<style type="text/css">
	.st0{display:none;}
	.st1{display:inline;fill:#085DA9;}
	.st2{display:inline;}
	.st3{fill:#FFFFFF;}
	.st4{display:inline;fill:#FFFFFF;}
	.st5{fill:#085DA9;}
</style>
<g class="st0">
	<circle id="XMLID_202_" class="st1" cx="37.5" cy="37.5" r="37.5"/>
	<g class="st2">
		<path class="st3" d="M57.2,24.4c-1.6-1.7-3.5-1.7-4.3-1.8c-6-0.4-15.1-0.4-15.1-0.4h0c0,0-9.1,0-15.1,0.4
			c-0.8,0.1-2.7,0.1-4.3,1.8c-1.3,1.3-1.7,4.3-1.7,4.3s-0.4,3.5-0.4,7v3.3c0,3.5,0.4,7,0.4,7s0.4,3,1.7,4.3c1.6,1.7,3.8,1.7,4.8,1.8
			c3.5,0.3,14.7,0.4,14.7,0.4s9.1,0,15.1-0.5c0.8-0.1,2.7-0.1,4.3-1.8c1.3-1.3,1.7-4.3,1.7-4.3s0.4-3.5,0.4-7v-3.3
			c0-3.5-0.5-7-0.5-7S58.5,25.7,57.2,24.4z M43.6,37.6L43.6,37.6l-10.2,5.3v0l0,0V30.8l0,0v0L45,36.8L43.6,37.6z"/>
	</g>
</g>
<g class="st0">
	<circle id="XMLID_65_" class="st1" cx="37.1" cy="37.5" r="37.5"/>
	<path id="Twitter_2_" class="st4" d="M54.9,24.6c-1.5,0.9-3.1,1.5-4.8,1.9c-1.4-1.5-3.3-2.4-5.5-2.4c-4.2,0-7.5,3.5-7.5,7.7
		c0,0.6,0.1,1.2,0.2,1.8c-6.3-0.3-11.8-3.4-15.5-8.1c-0.6,1.1-1,2.5-1,3.9c0,2.7,1.3,5,3.3,6.4c-1.2,0-2.4-0.4-3.4-1v0.1
		c0,3.7,2.6,6.9,6,7.6c-0.6,0.2-1.3,0.3-2,0.3c-0.5,0-1,0-1.4-0.1c1,3.1,3.7,5.3,7,5.4c-2.6,2.1-5.8,3.3-9.3,3.3
		c-0.6,0-1.2,0-1.8-0.1c3.3,2.2,7.3,3.5,11.5,3.5c13.8,0,21.4-11.8,21.4-21.9c0-0.3,0-0.7,0-1c1.5-1.1,2.7-2.4,3.8-4
		c-1.3,0.6-2.8,1-4.3,1.2C53.2,27.9,54.4,26.4,54.9,24.6z"/>
</g>
<g>
	<circle id="XMLID_1_" class="st5" cx="37.5" cy="37.5" r="37.5"/>
	<path class="st3" d="M40.7,26.6c1.6,0,3.2,0,4.8,0c0-0.9,0-4.4,0-7.1c-2.1,0-4.4,0-5.5,0c-7.8,0-7.6,6.3-7.6,7.2c0,0.2,0,2.1,0,4.7
		h-3.6v7.1h3.6c0,7.8,0,16.7,0,16.7h7.1c0,0,0-9,0-16.7h4.8l1.2-7.1h-6c0-2.1,0-3.4,0-3.6C39.5,27,39.9,26.6,40.7,26.6z"/>
</g>
<g class="st0">
	<circle id="XMLID_133_" class="st1" cx="37.5" cy="37.5" r="37.5"/>
	<g id="XMLID_112_" class="st2">
		<path id="XMLID_117_" class="st3" d="M45,20.3H28.9c-4.9,0-9,4.1-9,9.2v15.7c0,5,4,9.2,9,9.2H45c4.9,0,9-4.1,9-9.2V29.4
			C53.9,24.4,49.9,20.3,45,20.3z M50.9,44.9c0,3.5-2.8,6.3-6.2,6.3H29.2c-3.4,0-6.2-2.9-6.2-6.3V29.7c0-3.5,2.8-6.3,6.2-6.3l15.5,0
			c3.4,0,6.2,2.9,6.2,6.3V44.9z"/>
		<path id="XMLID_114_" class="st3" d="M36.9,28.6c-4.7,0-8.5,3.9-8.5,8.7c0,4.8,3.8,8.7,8.5,8.7s8.5-3.9,8.5-8.7
			S41.6,28.6,36.9,28.6z M36.9,42.9c-3,0-5.5-2.5-5.5-5.6c0-3.1,2.5-5.6,5.5-5.6c3,0,5.5,2.5,5.5,5.6C42.4,40.4,40,42.9,36.9,42.9z"
			/>
		<ellipse id="XMLID_71_" class="st3" cx="45.9" cy="28.1" rx="1.9" ry="2"/>
	</g>
</g>
</svg>
