<?xml version="1.0" encoding="utf-8"?>
<!-- Generator: Adobe Illustrator 24.3.0, SVG Export Plug-In . SVG Version: 6.00 Build 0)  -->
<svg version="1.1" id="Calque_1" xmlns="http://www.w3.org/2000/svg" xmlns:xlink="http://www.w3.org/1999/xlink" x="0px" y="0px"
	 viewBox="0 0 75 75" style="enable-background:new 0 0 75 75;" xml:space="preserve">
<style type="text/css">
	.st0{fill:#085DA9;}
	.st1{fill:#FFFFFF;}
</style>
<g>
	<circle id="XMLID_202_" class="st0" cx="37.5" cy="37.5" r="37.5"/>
	<g>
		<path class="st1" d="M57.2,24.4c-1.6-1.7-3.5-1.7-4.3-1.8c-6-0.4-15.1-0.4-15.1-0.4h0c0,0-9.1,0-15.1,0.4
			c-0.8,0.1-2.7,0.1-4.3,1.8c-1.3,1.3-1.7,4.3-1.7,4.3s-0.4,3.5-0.4,7v3.3c0,3.5,0.4,7,0.4,7s0.4,3,1.7,4.3c1.6,1.7,3.8,1.7,4.8,1.8
			c3.5,0.3,14.7,0.4,14.7,0.4s9.1,0,15.1-0.5c0.8-0.1,2.7-0.1,4.3-1.8c1.3-1.3,1.7-4.3,1.7-4.3s0.4-3.5,0.4-7v-3.3
			c0-3.5-0.5-7-0.5-7S58.5,25.7,57.2,24.4z M43.6,37.6L43.6,37.6l-10.2,5.3v0l0,0V30.8l0,0v0L45,36.8L43.6,37.6z"/>
	</g>
</g>
</svg>
