<?xml version="1.0" encoding="utf-8"?>
<!-- Generator: Adobe Illustrator 24.3.0, SVG Export Plug-In . SVG Version: 6.00 Build 0)  -->
<svg version="1.1" id="Calque_1" xmlns="http://www.w3.org/2000/svg" xmlns:xlink="http://www.w3.org/1999/xlink" x="0px" y="0px"
	 viewBox="0 0 425.2 425.2" style="enable-background:new 0 0 425.2 425.2;" xml:space="preserve">
<style type="text/css">
	.st0{fill:#005CA9;}
	.st1{fill:#FFFFFF;}
</style>
<g>
	<path class="st0" d="M-0.1,224.3c6.2,117.3,106.2,207.3,223.4,201.2c117.2-6.1,207.3-106.2,201.2-223.4
		C418.4,84.9,318.4-5.2,201.1,0.9C83.9,7.1-6.2,107.1-0.1,224.3"/>
	<path class="st1" d="M370.1,151.8c4.2-10.4-0.4-22-0.4-22s-11.3,5.2-15.5,15.6c-4.2,10.4,0.4,22,0.4,22S366,162.2,370.1,151.8z
		 M344.8,155.9c1.1-11.1-6.5-21-6.5-21s-9.4,8.2-10.6,19.3c-1.1,11.1,6.5,21,6.5,21S343.7,167,344.8,155.9z M387.9,173.6
		c10.3-4.4,15.2-15.9,15.2-15.9s-11.7-4.3-22,0.2c-10.3,4.4-15.2,15.9-15.2,15.9S377.6,178.1,387.9,173.6z M384,187.9
		c-9.9-5.2-21.9-1.8-21.9-1.8s4.1,11.8,14,17c9.9,5.2,21.9,1.8,21.9,1.8S393.9,193.1,384,187.9z M344.2,193.5c0,0,0,12.5,7.6,20.6
		c7.7,8.2,20.1,8.9,20.1,8.9s0-12.5-7.6-20.6C356.7,194.2,344.2,193.5,344.2,193.5z M357.8,177.4c-0.5-1.7-2.3-2.6-4-2.1
		c-13.9,4.3-22.4,12-28.3,23.2c-3.3,6.2-5.9,13.5-8.6,22.1c-1.6-3.2-5.3-7.4-13.7-11.1c1.3-20.8-24.3-42.6-53.1-23.3
		c-3,2.3-7.7,2.4-8.1,2.2c0,0,2-2.2,1.8-5.9c0,0-0.9-17.6-1.1-20c-0.2-3.6-4.4-24.5-23.9-23.5c-19.5,1-42,2.4-42,2.4
		c3.5,4.5,6.1,9.3,6.4,14.8c0.3,5.5,1.9,35.3,1.9,35.3l-28.7,1.5c0,0-10.7,1.4-19.6-5.3l1.9,36.3c1,18.2,15.3,26.4,26.8,25.7
		c18.9-1,22.4-1.2,22.4-1.2l1.6,30.5c0,0,0.2,8.2-2.7,18.7l39.8-2.3c23.5-5.3,27.1-26.8,17.4-50.8c0,0,11.9-0.6,16.4-0.9
		c4.5-0.2,19.1,0.1,34.3-18.1c2.4-2.8,15.3-1.2,21-0.3c-1.6,5.5-3.3,11.4-5.2,17.9c-5.3,18.1-15.9,36.4-32,50.1
		c-16.1,13.7-37.5,22.9-64.7,22.9c-27.8,0-53-11.3-71.2-29.5c-18.2-18.2-29.5-43.4-29.5-71.2c0-27.8,11.3-53,29.5-71.2
		c18.2-18.2,43.4-29.5,71.2-29.5c34.8,0,65.4,17.6,83.5,44.4c1,1.5,3,1.8,4.4,0.9c1.5-1,1.8-3,0.9-4.4
		c-19.2-28.5-51.8-47.2-88.8-47.2c-59.1,0-107.1,47.9-107.1,107.1c0,59.1,47.9,107.1,107.1,107.1h0.1c28.7,0,51.7-9.8,68.8-24.4
		c17.1-14.6,28.4-34,34-53.2c5.6-19.3,9.4-33.6,14.8-43.7c5.5-10.1,12-16.1,24.6-20.1C357.4,180.9,358.3,179.1,357.8,177.4z
		 M284.3,208c-2.5,0.2-4.7-1.8-4.8-4.3c-0.1-2.5,1.8-4.7,4.3-4.8c2.5-0.1,4.7,1.8,4.8,4.3C288.7,205.8,286.8,207.9,284.3,208z"/>
	<g>
		<g>
			<g>
				<path class="st1" d="M51.9,304.2l-9.2-16.1l42.8-24.5l9.2,16c7.8,13.6,4.5,22.9-10.2,31.3C68.9,319.8,59.1,316.9,51.9,304.2z
					 M85.9,284.5l-3.6-6.3l-25.6,14.6l3.6,6.3c3.7,6.6,7.4,8,18.3,1.7C88.8,295.1,89.8,291.2,85.9,284.5z"/>
			</g>
			<g>
				<path class="st1" d="M114.8,350c-8.3,9.2-17.4,9.2-27.1,0.4c-9.6-8.7-10.6-17.9-2.3-27.1l21.3-23.5l8.2,7.4l-21.2,23.4
					c-4,4.4-3.8,8.2,0.8,12.3c4.6,4.1,8.2,4,12.3-0.5l21.2-23.4l8.1,7.4L114.8,350z"/>
			</g>
		</g>
		<g>
			<path class="st1" d="M167.5,340l4.2,30.7l0.6,5.2l0.2,0l3-4.3l18.1-25.2l11.9,2.9l-11.8,47.8l-9.8-2.4l6-24.4l1.4-5.1l-0.2-0.1
				l-3,4.4L172,391.8l-7.1-1.8l-3.7-27.1l-0.6-5.3l-0.1,0l-1.2,5.2l-6,24.3l-9.5-2.3l11.8-47.8L167.5,340z"/>
		</g>
		<g>
			<path class="st1" d="M235.7,396.8c-15,1.9-22.6-5.2-24.8-22.6c-2.2-17.4,3.1-26,18.3-28c15.3-2,22.5,5,24.7,22.4
				C256.2,386.4,251,394.9,235.7,396.8z M230.4,356.1c-7.4,1-9.6,4.3-8.1,16.7c1.6,12.4,4.7,15.2,12.1,14.2c7.4-0.9,9.6-4.5,8-16.8
				C240.9,357.8,237.9,355.2,230.4,356.1z"/>
		</g>
		<g>
			<path class="st1" d="M305.7,372.5L276.6,357l-4.6-2.6l-0.1,0.1l2.4,4.7l11.6,23.1l-8.8,4.4l-22-44.1l8.5-4.2l27.1,14.9l4.6,2.6
				l0.1-0.1l-2.5-4.6l-11-21.9l8.7-4.4l22,44L305.7,372.5z"/>
		</g>
		<g>
			<path class="st1" d="M343.8,342.2l-12.9,13.3l-35.3-34.3l12.9-13.2c10.9-11.2,20.7-10.7,32.9,1.1
				C354.1,321.5,354,331.8,343.8,342.2z M315.4,315l-5,5.2l21.2,20.5l5.1-5.2c5.3-5.4,5.6-9.3-3.4-18.1
				C324.8,309.3,320.9,309.4,315.4,315z"/>
		</g>
		<g>
			<g>
				<path class="st1" d="M30.7,203.8l30-7.8l5.1-1.2l0-0.2l-4.7-2.4l-27.1-15l1.5-12.1l48.9,6.1l-1.3,10l-24.9-3.1l-5.3-0.8
					l-0.1,0.2l4.7,2.4l24,13.2l-0.9,7.3l-26.5,6.8l-5.2,1.2l0,0.1l5.3,0.6l24.8,3.1l-1.2,9.7l-48.9-6.1L30.7,203.8z"/>
			</g>
			<g>
				<path class="st1" d="M121.1,117.7l-13.5,12.8L73.8,94.6l13.4-12.7c11.4-10.7,21.2-9.8,32.9,2.6
					C132.3,97.4,131.7,107.7,121.1,117.7z M93.9,89.2l-5.3,5l20.2,21.5l5.3-5c5.5-5.2,6-9-2.6-18.2C103.6,83.9,99.6,83.9,93.9,89.2z
					"/>
			</g>
			<g>
				<path class="st1" d="M167.7,77.5l3.9,8.8l-30.2,14.4l-21.2-44.5l29.4-14l4.4,8.8l-19.5,9.3l4.2,8.8l16.4-7.8l3.8,7.9l-16.4,7.8
					l4.8,10.1L167.7,77.5z"/>
			</g>
			<g>
				<path class="st1" d="M202.4,42.2c-2.7-0.6-6.2-0.7-9.8-0.2c-8.8,1.4-11.2,5.4-9.4,16.9c1.9,12.2,5.5,15.4,14.4,14
					c3.6-0.5,6.6-1.8,9.2-3.3l2.5,8.7c-2.9,2-7.4,3.9-11.7,4.5c-14.7,2.3-23.1-4.8-25.8-22.2c-2.5-16.2,3.2-25.9,18.8-28.3
					c3.9-0.6,8.6-0.4,11.6,0.3L202.4,42.2z"/>
			</g>
			<g>
				<path class="st1" d="M220,32l11.3,0.8L227.6,82l-11.3-0.8L220,32z"/>
			</g>
			<g>
				<path class="st1" d="M266.9,92.5l-9.2-31.6l-1.3-5.1l-0.1,0l-1.7,5L246,85.2l-9.3-3.2l16.2-46.5l8.9,3.1l8.2,29.8l1.3,5.1l0.1,0
					l1.6-5l8-23.1l9.2,3.2L274.2,95L266.9,92.5z"/>
			</g>
			<g>
				<path class="st1" d="M290.9,108.4c-4.5-3.5-7.9-7.8-9.9-12.2l6.9-6.7c2,4.5,4.8,8.2,8.7,11.2c4.3,3.3,7.4,3.1,9.4,0.4
					c4.7-6.2-15.3-17.3-5.3-30.4c5.1-6.6,13.5-8.7,23.4-1.1c3.8,2.9,7.3,6.9,9.4,10.4l-6.8,6.6c-2.4-3.5-5.2-6.6-8.2-8.9
					c-4.9-3.7-7.4-3-9-1c-4.7,6.1,15.5,17.1,5.3,30.3C309,114.7,300,115.4,290.9,108.4z"/>
			</g>
			<g>
				<path class="st1" d="M375.6,277.3l8.5,4.7l-15.4,29.8L325,289.1l14.9-28.9l8.8,4.3l-9.9,19.2l8.7,4.5l8.4-16.2l7.8,4l-8.4,16.2
					l10,5.2L375.6,277.3z"/>
			</g>
			<g>
				<path class="st1" d="M50.7,108.8l1.9,11.9l-4.3,6.9l-4.5-7.8L50.7,108.8z M96,131.2l8.1,5.3L86.4,165l-41.8-26l17.1-27.6l8.4,5
					l-11.4,18.4l8.3,5.2l9.6-15.5l7.5,4.6l-9.6,15.5l9.5,5.9L96,131.2z"/>
			</g>
		</g>
	</g>
</g>
</svg>
